<svg width="306" height="100" viewBox="0 0 306 100" fill="none" xmlns="http://www.w3.org/2000/svg">
<mask id="mask0_7_27" style="mask-type:alpha" maskUnits="userSpaceOnUse" x="0" y="0" width="68" height="69">
<path d="M67.6414 34.7026C67.6414 53.3366 52.5355 68.4425 33.9015 68.4425C15.2675 68.4425 0.161591 53.3366 0.161591 34.7026C0.161591 16.0685 15.2675 0.962677 33.9015 0.962677C52.5355 0.962677 67.6414 16.0685 67.6414 34.7026Z" fill="#C4C4C4"/>
</mask>
<g mask="url(#mask0_7_27)">
<path fill-rule="evenodd" clip-rule="evenodd" d="M19.14 4.57764C16.44 6.09261 18.5816 9.24711 16.6201 11.4349C26.3682 9.29085 29.7127 8.5731 39.2806 10.1632C49.1115 11.7959 58.0668 15.8886 64.6286 20.8451C63.8751 18.9943 62.856 17.2366 61.8114 15.4469C54.6549 3.18967 34.9432 -4.29351 19.14 4.57764Z" fill="white" fill-opacity="0.8"/>
<path fill-rule="evenodd" clip-rule="evenodd" d="M38.543 21.8539C27.0055 19.8854 15.5719 20.8649 4.98885 24.2062C4.93874 24.357 4.89297 24.509 4.84533 24.6617C3.6458 29.311 3.44103 34.2161 4.3065 39.0206C14.0413 35.1453 24.9467 33.8347 36.131 35.7428C47.1965 37.6315 56.9437 42.4015 64.7707 49.1625C67.1908 44.7475 68.5778 39.8292 68.8463 34.8124C60.1124 28.3579 49.8529 23.7852 38.543 21.8539Z" fill="white" fill-opacity="0.8"/>
<path fill-rule="evenodd" clip-rule="evenodd" d="M57.6458 43.9008C55.9874 46.6122 54.1688 49.1911 52.1871 51.5871C50.8874 53.1592 49.8712 54.4524 49.0157 55.5411C45.5598 59.9389 44.7267 60.9991 38.4203 63.6225C40.4812 63.9147 41.125 66.5312 41.125 66.5312C59.1873 65.6996 69.9381 50.4181 68.8361 34.9934C68.5442 39.9476 67.1617 44.8006 64.7707 49.1625C62.5462 47.241 60.1666 45.4803 57.6458 43.9008ZM68.8211 34.7938C67.2156 33.6083 65.5585 32.4864 63.8529 31.4328C64.7742 29.1362 65.6033 26.8044 66.3412 24.4601C66.3592 24.5138 66.3772 24.5675 66.3951 24.6212C67.3442 27.459 68.295 30.3018 68.682 33.4175C68.739 33.8761 68.7853 34.335 68.8211 34.7938Z" fill="white" fill-opacity="0.6"/>
<path fill-rule="evenodd" clip-rule="evenodd" d="M38.5009 63.6225C35.3642 65.6138 32.1938 67.292 29.0814 68.6238C31.5945 68.9902 34.1783 69.1239 36.8067 68.9999C38.8813 68.9008 40.9293 68.6134 42.9389 68.1632C41.4313 66.7291 39.9512 65.208 38.5009 63.6225Z" fill="white" fill-opacity="0.6"/>
<path fill-rule="evenodd" clip-rule="evenodd" d="M16.4548 64.253C19.1763 65.6651 22.0042 66.6513 24.8641 67.2374C18.2003 59.9612 12.4799 51.4634 9.13355 42.4755C5.69493 33.2374 4.81482 23.521 5.8616 15.4226C4.63339 16.9925 3.5331 18.6992 2.58473 20.5354C-5.63143 36.4463 0.578506 56.0196 16.4548 64.253Z" fill="white"/>
<path fill-rule="evenodd" clip-rule="evenodd" d="M34.7786 32.9334C30.679 22.0306 29.8364 10.8403 31.7724 0.360229C26.5722 0.440426 21.4625 1.70497 16.8507 4.02553C15.6635 15.1651 16.949 26.7147 21.1392 37.8581C25.4141 49.2261 32.9823 60.0424 41.4926 67.84C46.8778 66.7788 52.3638 64.2312 56.1939 61.0021C47.6525 54.2368 38.9236 43.953 34.7786 32.9334Z" fill="white"/>
</g>
<path d="M73.7906 90.0074H67.6413V91.2458C67.6413 94.0642 68.3815 96.2278 69.8619 97.7367C71.3707 99.2455 73.8617 99.9999 77.3349 99.9999C80.6658 99.9999 83.2564 99.274 85.1069 97.8221C86.9858 96.3417 87.9253 93.993 87.9253 90.7761C87.9253 89.8366 87.8398 88.9826 87.669 88.2139C87.4982 87.4453 87.1851 86.7478 86.7296 86.1215C86.3025 85.4667 85.7189 84.8688 84.9788 84.3279C84.2386 83.7586 83.2849 83.2177 82.1177 82.7052L77.3776 80.6555C76.0681 80.1146 75.214 79.531 74.8154 78.9047C74.4169 78.2499 74.2176 77.4528 74.2176 76.5133C74.2176 76.0578 74.2603 75.6165 74.3457 75.1895C74.4596 74.7625 74.6446 74.3924 74.9009 74.0792C75.1855 73.7376 75.5556 73.4672 76.0111 73.2679C76.4666 73.0686 77.036 72.969 77.7192 72.969C78.9149 72.969 79.769 73.3675 80.2814 74.1646C80.7939 74.9333 81.0501 76.0436 81.0501 77.4955H86.9431V76.6414C86.9431 75.1895 86.7011 73.9511 86.2171 72.9263C85.7616 71.8729 85.1069 71.0189 84.2528 70.3641C83.4272 69.6808 82.4308 69.1969 81.2636 68.9122C80.1248 68.599 78.8722 68.4424 77.5057 68.4424C74.5735 68.4424 72.2675 69.1826 70.5879 70.663C68.9082 72.1434 68.0684 74.3924 68.0684 77.4101C68.0684 78.6627 68.225 79.773 68.5381 80.7409C68.8513 81.6804 69.3352 82.5202 69.99 83.2604C70.6733 83.9721 71.5131 84.5984 72.5095 85.1393C73.5059 85.6802 74.6873 86.1784 76.0538 86.6339C77.0787 86.9755 77.9328 87.3172 78.616 87.6588C79.3277 87.9719 79.8971 88.3278 80.3241 88.7263C80.7512 89.1249 81.0501 89.5804 81.2209 90.0928C81.4202 90.5768 81.5198 91.1604 81.5198 91.8437C81.5198 93.1248 81.1355 94.0785 80.3668 94.7048C79.6266 95.3026 78.7868 95.6015 77.8474 95.6015C77.0502 95.6015 76.3812 95.4876 75.8403 95.2599C75.3279 95.0322 74.9151 94.719 74.6019 94.3204C74.2888 93.9219 74.0753 93.4379 73.9614 92.8685C73.8475 92.2707 73.7906 91.6159 73.7906 90.9042V90.0074Z" fill="white"/>
<path d="M96.9166 84.2852C96.9166 82.2355 96.9593 80.4989 97.0447 79.0755C97.1585 77.652 97.3578 76.4848 97.6425 75.5738C97.9557 74.6628 98.3827 74.0081 98.9236 73.6095C99.493 73.1825 100.233 72.969 101.144 72.969C102.055 72.969 102.781 73.1825 103.322 73.6095C103.891 74.0081 104.318 74.6628 104.603 75.5738C104.916 76.4848 105.116 77.652 105.201 79.0755C105.315 80.4989 105.372 82.2355 105.372 84.2852C105.372 86.335 105.315 88.0858 105.201 89.5377C105.116 90.9611 104.916 92.1284 104.603 93.0393C104.318 93.9219 103.891 94.5767 103.322 95.0037C102.781 95.4022 102.055 95.6015 101.144 95.6015C100.233 95.6015 99.493 95.4022 98.9236 95.0037C98.3827 94.5767 97.9557 93.9219 97.6425 93.0393C97.3578 92.1284 97.1585 90.9611 97.0447 89.5377C96.9593 88.0858 96.9166 86.335 96.9166 84.2852ZM90.7673 84.2852C90.7673 86.6197 90.867 88.7548 91.0663 90.6907C91.294 92.6266 91.7637 94.292 92.4755 95.6869C93.2156 97.0819 94.269 98.1495 95.6355 98.8897C97.002 99.6298 98.8382 99.9999 101.144 99.9999C103.45 99.9999 105.286 99.6298 106.653 98.8897C108.019 98.1495 109.058 97.0819 109.77 95.6869C110.51 94.292 110.98 92.6266 111.179 90.6907C111.407 88.7548 111.521 86.6197 111.521 84.2852C111.521 81.9793 111.407 79.8584 111.179 77.9225C110.98 75.9582 110.51 74.2785 109.77 72.8836C109.058 71.4886 108.019 70.4068 106.653 69.6381C105.286 68.841 103.45 68.4424 101.144 68.4424C98.8382 68.4424 97.002 68.841 95.6355 69.6381C94.269 70.4068 93.2156 71.4886 92.4755 72.8836C91.7637 74.2785 91.294 75.9582 91.0663 77.9225C90.867 79.8584 90.7673 81.9793 90.7673 84.2852Z" fill="white"/>
<path d="M115.563 99.5302H132.602V94.4912H121.713V69.0403H115.563V99.5302Z" fill="white"/>
<path d="M137.157 69.0403H130.581L137.584 99.5302H145.484L152.487 69.0403H146.125L141.598 91.5874H141.47L137.157 69.0403Z" fill="white"/>
<path d="M172.197 69.0403H155.159V99.5302H172.624V94.4912H161.308V86.2923H171.557V81.2533H161.308V74.0792H172.197V69.0403Z" fill="white"/>
<path d="M176.145 69.0403V99.5302H182.294V86.6339H185.582C186.863 86.6339 187.774 86.9755 188.315 87.6588C188.856 88.342 189.155 89.2815 189.212 90.4772L189.383 96.3275C189.411 96.9253 189.468 97.5089 189.554 98.0783C189.639 98.6192 189.838 99.1032 190.151 99.5302H196.813V99.274C196.244 98.9608 195.874 98.3772 195.703 97.5232C195.589 96.6691 195.504 95.4307 195.447 93.808C195.418 92.9824 195.39 92.2422 195.361 91.5874C195.333 90.9042 195.29 90.2779 195.233 89.7085C195.062 88.0004 194.621 86.762 193.909 85.9934C193.198 85.2247 192.073 84.7265 190.536 84.4988V84.4134C192.272 84.0433 193.553 83.2177 194.379 81.9366C195.205 80.627 195.617 78.9474 195.617 76.8976C195.617 74.25 194.906 72.2857 193.482 71.0046C192.059 69.6951 190.066 69.0403 187.504 69.0403H176.145ZM182.294 82.3636V73.5668H185.198C188.045 73.5668 189.468 74.976 189.468 77.7944C189.468 79.4456 189.07 80.627 188.273 81.3387C187.475 82.022 186.337 82.3636 184.856 82.3636H182.294Z" fill="white"/>
<path d="M205.177 69.51L213.615 96.2421L222.373 69.51H225.934V99.9999H223.513V73.6522H223.441L214.754 99.9999H212.476L204.109 73.6522H204.038V99.9999H201.617V69.51H205.177Z" fill="white"/>
<path d="M231.284 69.51V99.9999H249.015V97.5231H233.705V85.4809H247.875V83.0041H233.705V71.9868H248.837V69.51H231.284Z" fill="white"/>
<path d="M252.745 69.51V99.9999H261.539C265.408 99.886 268.316 98.5907 270.262 96.114C272.232 93.6087 273.217 89.8224 273.217 84.755C273.217 79.6875 272.232 75.9155 270.262 73.4387C268.316 70.9334 265.408 69.6239 261.539 69.51H252.745ZM255.166 97.5231V71.9868H260.329C262.156 71.9868 263.723 72.2288 265.028 72.7127C266.357 73.1682 267.449 73.9084 268.304 74.9333C269.158 75.9582 269.787 77.2819 270.191 78.9047C270.594 80.5274 270.796 82.4775 270.796 84.755C270.796 87.0325 270.594 88.9826 270.191 90.6053C269.787 92.228 269.158 93.5518 268.304 94.5766C267.449 95.6015 266.357 96.3559 265.028 96.8399C263.723 97.2954 262.156 97.5231 260.329 97.5231H255.166Z" fill="white"/>
<path d="M277.652 69.51V99.9999H280.073V69.51H277.652Z" fill="white"/>
<path d="M289.318 88.0431L294.41 72.4138L299.323 88.0431H289.318ZM293.164 69.51L282.945 99.9999H285.509L288.571 90.5199H300.142L303.239 99.9999H305.838L295.869 69.51H293.164Z" fill="white"/>
</svg>
