<svg width="112" height="112" viewBox="0 0 112 112" fill="none" xmlns="http://www.w3.org/2000/svg">
<mask id="mask0_213_2" style="mask-type:alpha" maskUnits="userSpaceOnUse" x="0" y="0" width="112" height="112">
<path d="M112 56C112 86.9279 86.9279 112 56 112C25.0721 112 0 86.9279 0 56C0 25.0721 25.0721 0 56 0C86.9279 0 112 25.0721 112 56Z" fill="#C4C4C4"/>
</mask>
<g mask="url(#mask0_213_2)">
<path fill-rule="evenodd" clip-rule="evenodd" d="M113.727 53.867C113.073 48.5979 111.447 43.799 109.842 39C104.712 55.2954 96.9311 71.2304 86.3498 84.0241C75.478 97.1739 76.5584 98.5678 63.5001 104C66.9208 104.485 55.5494 112.991 59.1249 112.826C90.1249 111.399 117.014 80.3285 113.727 53.867Z" fill="#4D4E50"/>
<path fill-rule="evenodd" clip-rule="evenodd" d="M31.4998 5.99997C27.0184 8.51446 30.5729 13.7502 27.3174 17.3813C43.4968 13.8228 49.0478 12.6315 64.9282 15.2707C81.2452 17.9805 96.1087 24.7734 107 33C105.749 29.9282 104.058 27.0108 102.324 24.0403C90.4459 3.69628 57.7292 -8.72397 31.4998 5.99997Z" fill="#00C0F3"/>
<path fill-rule="evenodd" clip-rule="evenodd" d="M63.704 34.6743C44.5545 31.4072 25.5774 33.0329 8.01223 38.5786C7.92906 38.8289 7.85308 39.0812 7.77402 39.3346C5.78308 47.0514 5.44322 55.1926 6.87969 63.167C23.0372 56.7349 41.1373 54.5596 59.7006 57.7266C78.0667 60.8613 94.2447 68.7783 107.236 80C111.252 72.6722 113.554 64.5091 114 56.1822C99.5039 45.4695 82.4757 37.8799 63.704 34.6743Z" fill="#00C0F3"/>
<path fill-rule="evenodd" clip-rule="evenodd" d="M63.6341 104C58.4279 107.305 53.1658 110.09 48 112.301C52.1712 112.909 56.4595 113.131 60.822 112.925C64.2655 112.761 67.6646 112.284 71 111.537C68.4978 109.156 66.0412 106.632 63.6341 104Z" fill="#00C0F3"/>
<path fill-rule="evenodd" clip-rule="evenodd" d="M27.0426 105.047C31.5597 107.39 36.2533 109.027 41 110C29.9397 97.9233 20.4452 83.8189 14.8911 68.9013C9.1838 53.5683 7.72304 37.4414 9.46043 24C7.4219 26.6056 5.5957 29.4384 4.02163 32.4859C-9.6152 58.8941 0.691785 91.3811 27.0426 105.047Z" fill="#1897D3"/>
<path fill-rule="evenodd" clip-rule="evenodd" d="M57.4559 53.0636C50.6515 34.9675 49.2531 16.3943 52.4664 -1C43.8353 -0.866894 35.3544 1.23194 27.6999 5.08351C25.7294 23.5725 27.8631 42.742 34.8178 61.2374C41.9131 80.1055 54.4744 98.0578 68.5995 111C77.5376 109.239 86.6431 105.01 93 99.6508C78.8234 88.422 64.3355 71.3534 57.4559 53.0636Z" fill="#1897D3"/>
</g>
</svg>
