<svg width="306" height="100" viewBox="0 0 306 100" fill="none" xmlns="http://www.w3.org/2000/svg">
<mask id="mask0_5_36" style="mask-type:alpha" maskUnits="userSpaceOnUse" x="0" y="0" width="68" height="68">
<path d="M67.6414 34.1486C67.6414 52.7826 52.5355 67.8885 33.9015 67.8885C15.2675 67.8885 0.161591 52.7826 0.161591 34.1486C0.161591 15.5146 15.2675 0.408722 33.9015 0.408722C52.5355 0.408722 67.6414 15.5146 67.6414 34.1486Z" fill="#C4C4C4"/>
</mask>
<g mask="url(#mask0_5_36)">
<path fill-rule="evenodd" clip-rule="evenodd" d="M68.6821 32.8635C68.2878 29.6889 67.3081 26.7976 66.3413 23.9062C63.2505 33.7241 58.5624 43.325 52.1872 51.0331C45.6369 58.9558 46.2879 59.7957 38.4203 63.0686C40.4813 63.3608 33.63 68.4854 35.7843 68.3865C54.4617 67.5266 70.662 48.8065 68.6821 32.8635Z" fill="#4D4E50"/>
<path fill-rule="evenodd" clip-rule="evenodd" d="M19.14 4.02367C16.44 5.53865 18.5816 8.69315 16.6201 10.8809C26.3682 8.73689 29.7127 8.01914 39.2806 9.60928C49.1115 11.2419 58.0668 15.3346 64.6286 20.2911C63.8751 18.4404 62.856 16.6827 61.8114 14.8929C54.6549 2.63571 34.9432 -4.84747 19.14 4.02367Z" fill="#00C0F3"/>
<path fill-rule="evenodd" clip-rule="evenodd" d="M38.543 21.2999C27.0055 19.3315 15.5719 20.311 4.98885 23.6522C4.93874 23.803 4.89297 23.9551 4.84533 24.1077C3.6458 28.7571 3.44103 33.6621 4.3065 38.4667C14.0413 34.5914 24.9467 33.2808 36.131 35.1889C47.1965 37.0775 56.9437 41.8475 64.7707 48.6085C67.1908 44.1935 68.5778 39.2753 68.8463 34.2584C60.1124 27.804 49.8529 23.2313 38.543 21.2999Z" fill="#00C0F3"/>
<path fill-rule="evenodd" clip-rule="evenodd" d="M38.5009 63.0685C35.3642 65.0599 32.1938 66.738 29.0814 68.0699C31.5945 68.4362 34.1783 68.5699 36.8067 68.4459C38.8813 68.3469 40.9293 68.0594 42.9389 67.6093C41.4313 66.1751 39.9512 64.6541 38.5009 63.0685Z" fill="#4D4E50"/>
<path fill-rule="evenodd" clip-rule="evenodd" d="M16.4548 63.699C19.1763 65.1111 22.0042 66.0973 24.8641 66.6835C18.2003 59.4073 12.4799 50.9094 9.13355 41.9216C5.69493 32.6835 4.81482 22.9671 5.8616 14.8687C4.63339 16.4385 3.5331 18.1453 2.58473 19.9814C-5.63143 35.8923 0.578506 55.4656 16.4548 63.699Z" fill="#1897D3"/>
<path fill-rule="evenodd" clip-rule="evenodd" d="M34.7786 32.3795C30.679 21.4766 29.8364 10.2863 31.7724 -0.193726C26.5722 -0.113529 21.4625 1.15101 16.8507 3.47158C15.6635 14.6112 16.949 26.1607 21.1392 37.3042C25.4141 48.6722 32.9823 59.4884 41.4926 67.286C46.8778 66.2249 52.3638 63.6772 56.1939 60.4482C47.6525 53.6828 38.9236 43.3991 34.7786 32.3795Z" fill="#1897D3"/>
</g>
<path d="M73.7906 89.4535H67.6413V90.6919C67.6413 93.5103 68.3815 95.6739 69.8619 97.1827C71.3707 98.6916 73.8617 99.446 77.3349 99.446C80.6658 99.446 83.2564 98.72 85.1069 97.2681C86.9858 95.7878 87.9253 93.4391 87.9253 90.2221C87.9253 89.2827 87.8398 88.4286 87.669 87.66C87.4982 86.8913 87.1851 86.1938 86.7296 85.5675C86.3025 84.9127 85.7189 84.3149 84.9788 83.774C84.2386 83.2046 83.2849 82.6637 82.1177 82.1513L77.3776 80.1015C76.0681 79.5606 75.214 78.977 74.8154 78.3507C74.4169 77.6959 74.2176 76.8988 74.2176 75.9593C74.2176 75.5039 74.2603 75.0626 74.3457 74.6356C74.4596 74.2085 74.6446 73.8384 74.9009 73.5253C75.1855 73.1837 75.5556 72.9132 76.0111 72.7139C76.4666 72.5146 77.036 72.415 77.7192 72.415C78.9149 72.415 79.769 72.8136 80.2814 73.6107C80.7939 74.3793 81.0501 75.4896 81.0501 76.9415H86.9431V76.0875C86.9431 74.6356 86.7011 73.3972 86.2171 72.3723C85.7616 71.319 85.1069 70.4649 84.2528 69.8101C83.4272 69.1269 82.4308 68.6429 81.2636 68.3582C80.1248 68.0451 78.8722 67.8885 77.5057 67.8885C74.5735 67.8885 72.2675 68.6287 70.5879 70.109C68.9082 71.5894 68.0684 73.8384 68.0684 76.8561C68.0684 78.1087 68.225 79.219 68.5381 80.1869C68.8513 81.1264 69.3352 81.9662 69.99 82.7064C70.6733 83.4181 71.5131 84.0444 72.5095 84.5853C73.5059 85.1262 74.6873 85.6245 76.0538 86.0799C77.0787 86.4216 77.9328 86.7632 78.616 87.1048C79.3277 87.418 79.8971 87.7738 80.3241 88.1724C80.7512 88.571 81.0501 89.0265 81.2209 89.5389C81.4202 90.0229 81.5198 90.6065 81.5198 91.2897C81.5198 92.5708 81.1355 93.5245 80.3668 94.1508C79.6266 94.7486 78.7868 95.0476 77.8474 95.0476C77.0502 95.0476 76.3812 94.9337 75.8403 94.7059C75.3279 94.4782 74.9151 94.165 74.6019 93.7665C74.2888 93.3679 74.0753 92.884 73.9614 92.3146C73.8475 91.7167 73.7906 91.062 73.7906 90.3502V89.4535Z" fill="#4D4D4F"/>
<path d="M96.9166 83.7313C96.9166 81.6815 96.9593 79.945 97.0447 78.5215C97.1585 77.0981 97.3578 75.9309 97.6425 75.0199C97.9557 74.1089 98.3827 73.4541 98.9236 73.0555C99.493 72.6285 100.233 72.415 101.144 72.415C102.055 72.415 102.781 72.6285 103.322 73.0555C103.891 73.4541 104.318 74.1089 104.603 75.0199C104.916 75.9309 105.116 77.0981 105.201 78.5215C105.315 79.945 105.372 81.6815 105.372 83.7313C105.372 85.781 105.315 87.5318 105.201 88.9837C105.116 90.4072 104.916 91.5744 104.603 92.4854C104.318 93.3679 103.891 94.0227 103.322 94.4497C102.781 94.8483 102.055 95.0476 101.144 95.0476C100.233 95.0476 99.493 94.8483 98.9236 94.4497C98.3827 94.0227 97.9557 93.3679 97.6425 92.4854C97.3578 91.5744 97.1585 90.4072 97.0447 88.9837C96.9593 87.5318 96.9166 85.781 96.9166 83.7313ZM90.7673 83.7313C90.7673 86.0657 90.867 88.2009 91.0663 90.1367C91.294 92.0726 91.7637 93.738 92.4755 95.133C93.2156 96.5279 94.269 97.5955 95.6355 98.3357C97.002 99.0759 98.8382 99.446 101.144 99.446C103.45 99.446 105.286 99.0759 106.653 98.3357C108.019 97.5955 109.058 96.5279 109.77 95.133C110.51 93.738 110.98 92.0726 111.179 90.1367C111.407 88.2009 111.521 86.0657 111.521 83.7313C111.521 81.4253 111.407 79.3044 111.179 77.3685C110.98 75.4042 110.51 73.7246 109.77 72.3296C109.058 70.9346 108.019 69.8528 106.653 69.0842C105.286 68.287 103.45 67.8885 101.144 67.8885C98.8382 67.8885 97.002 68.287 95.6355 69.0842C94.269 69.8528 93.2156 70.9346 92.4755 72.3296C91.7637 73.7246 91.294 75.4042 91.0663 77.3685C90.867 79.3044 90.7673 81.4253 90.7673 83.7313Z" fill="#4D4D4F"/>
<path d="M115.563 98.9762H132.602V93.9373H121.713V68.4863H115.563V98.9762Z" fill="#4D4D4F"/>
<path d="M137.157 68.4863H130.581L137.584 98.9762H145.484L152.487 68.4863H146.125L141.598 91.0335H141.47L137.157 68.4863Z" fill="#4D4D4F"/>
<path d="M172.197 68.4863H155.159V98.9762H172.624V93.9373H161.308V85.7383H171.557V80.6994H161.308V73.5253H172.197V68.4863Z" fill="#4D4D4F"/>
<path d="M176.145 68.4863V98.9762H182.294V86.0799H185.582C186.863 86.0799 187.774 86.4216 188.315 87.1048C188.856 87.7881 189.155 88.7275 189.212 89.9232L189.383 95.7735C189.411 96.3714 189.468 96.955 189.554 97.5243C189.639 98.0652 189.838 98.5492 190.151 98.9762H196.813V98.72C196.244 98.4069 195.874 97.8233 195.703 96.9692C195.589 96.1151 195.504 94.8768 195.447 93.254C195.418 92.4285 195.39 91.6883 195.361 91.0335C195.333 90.3502 195.29 89.7239 195.233 89.1546C195.062 87.4464 194.621 86.2081 193.909 85.4394C193.198 84.6708 192.073 84.1726 190.536 83.9448V83.8594C192.272 83.4893 193.553 82.6637 194.379 81.3826C195.205 80.0731 195.617 78.3934 195.617 76.3437C195.617 73.6961 194.906 71.7318 193.482 70.4507C192.059 69.1411 190.066 68.4863 187.504 68.4863H176.145ZM182.294 81.8097V73.0128H185.198C188.045 73.0128 189.468 74.422 189.468 77.2404C189.468 78.8916 189.07 80.0731 188.273 80.7848C187.475 81.468 186.337 81.8097 184.856 81.8097H182.294Z" fill="#4D4D4F"/>
<path d="M205.177 68.9561L213.615 95.6881L222.373 68.9561H225.934V99.446H223.513V73.0982H223.441L214.754 99.446H212.476L204.109 73.0982H204.038V99.446H201.617V68.9561H205.177Z" fill="#1C97D4"/>
<path d="M231.284 68.9561V99.446H249.015V96.9692H233.705V84.927H247.875V82.4502H233.705V71.4328H248.837V68.9561H231.284Z" fill="#1C97D4"/>
<path d="M252.745 68.9561V99.446H261.539C265.408 99.3321 268.316 98.0368 270.262 95.56C272.232 93.0548 273.217 89.2684 273.217 84.201C273.217 79.1336 272.232 75.3615 270.262 72.8847C268.316 70.3795 265.408 69.0699 261.539 68.9561H252.745ZM255.166 96.9692V71.4328H260.329C262.156 71.4328 263.723 71.6748 265.028 72.1588C266.357 72.6143 267.449 73.3545 268.304 74.3793C269.158 75.4042 269.787 76.728 270.191 78.3507C270.594 79.9734 270.796 81.9235 270.796 84.201C270.796 86.4785 270.594 88.4286 270.191 90.0513C269.787 91.674 269.158 92.9978 268.304 94.0227C267.449 95.0476 266.357 95.802 265.028 96.2859C263.723 96.7414 262.156 96.9692 260.329 96.9692H255.166Z" fill="#1C97D4"/>
<path d="M277.652 68.9561V99.446H280.073V68.9561H277.652Z" fill="#1C97D4"/>
<path d="M289.318 87.4891L294.41 71.8599L299.323 87.4891H289.318ZM293.164 68.9561L282.945 99.446H285.509L288.571 89.9659H300.142L303.239 99.446H305.838L295.869 68.9561H293.164Z" fill="#1C97D4"/>
</svg>
